<svg width="86" height="40" viewBox="0 0 86 40" fill="none" xmlns="http://www.w3.org/2000/svg">
<rect width="86" height="40" rx="4" fill="white" fill-opacity="0.3"/>
<path d="M22.98 27V24.32H16.84V22.44L23.42 12.9H25.54V22.2H27.52V24.32H25.54V27H22.98ZM22.98 22.2V16.82L19.3 22.2H22.98ZM33.9922 27.2C32.3522 27.2 31.0655 26.8467 30.1322 26.14C29.2122 25.4333 28.7522 24.4533 28.7522 23.2C28.7522 22.3467 28.9722 21.62 29.4122 21.02C29.8655 20.42 30.4522 20 31.1722 19.76C30.5322 19.48 30.0255 19.0533 29.6522 18.48C29.2922 17.9067 29.1122 17.2467 29.1122 16.5C29.1122 15.3133 29.5522 14.3867 30.4322 13.72C31.3122 13.04 32.4989 12.7 33.9922 12.7C35.4989 12.7 36.6922 13.04 37.5722 13.72C38.4522 14.3867 38.8922 15.3133 38.8922 16.5C38.8922 17.2467 38.7055 17.9133 38.3322 18.5C37.9722 19.0733 37.4789 19.4933 36.8522 19.76C37.5722 20 38.1455 20.4267 38.5722 21.04C39.0122 21.64 39.2322 22.36 39.2322 23.2C39.2322 24.4533 38.7655 25.4333 37.8322 26.14C36.9122 26.8467 35.6322 27.2 33.9922 27.2ZM33.9922 18.86C34.7789 18.86 35.3922 18.6733 35.8322 18.3C36.2855 17.9267 36.5122 17.4133 36.5122 16.76C36.5122 16.12 36.2855 15.62 35.8322 15.26C35.3922 14.8867 34.7789 14.7 33.9922 14.7C33.2055 14.7 32.5922 14.8867 32.1522 15.26C31.7122 15.62 31.4922 16.12 31.4922 16.76C31.4922 17.4133 31.7122 17.9267 32.1522 18.3C32.5922 18.6733 33.2055 18.86 33.9922 18.86ZM33.9922 25.2C35.8989 25.2 36.8522 24.4733 36.8522 23.02C36.8522 21.58 35.8989 20.86 33.9922 20.86C33.0589 20.86 32.3455 21.04 31.8522 21.4C31.3722 21.76 31.1322 22.3 31.1322 23.02C31.1322 23.74 31.3722 24.2867 31.8522 24.66C32.3455 25.02 33.0589 25.2 33.9922 25.2ZM45.9844 27.2C44.3177 27.2 43.0444 26.5733 42.1644 25.32C41.2844 24.0533 40.8444 22.2533 40.8444 19.92C40.8444 17.56 41.2844 15.7667 42.1644 14.54C43.0444 13.3133 44.3177 12.7 45.9844 12.7C47.6644 12.7 48.9377 13.3133 49.8044 14.54C50.6844 15.7667 51.1244 17.5533 51.1244 19.9C51.1244 22.2467 50.6844 24.0533 49.8044 25.32C48.9244 26.5733 47.651 27.2 45.9844 27.2ZM45.9844 25.1C46.891 25.1 47.5577 24.6867 47.9844 23.86C48.4244 23.02 48.6444 21.7 48.6444 19.9C48.6444 18.1133 48.4244 16.82 47.9844 16.02C47.5577 15.2067 46.891 14.8 45.9844 14.8C45.091 14.8 44.4244 15.2067 43.9844 16.02C43.5444 16.82 43.3244 18.1133 43.3244 19.9C43.3244 21.7 43.5444 23.02 43.9844 23.86C44.4244 24.6867 45.091 25.1 45.9844 25.1ZM62.5672 29.3V27.1C61.6872 27.0333 60.8539 26.8733 60.0672 26.62C59.2939 26.3533 58.6205 25.9867 58.0472 25.52L58.8272 23.5C59.4539 23.9667 60.1405 24.3267 60.8872 24.58C61.6339 24.8333 62.4539 24.96 63.3472 24.96C64.3205 24.96 65.0339 24.7867 65.4872 24.44C65.9405 24.0933 66.1672 23.66 66.1672 23.14C66.1672 22.6733 66.0139 22.3 65.7072 22.02C65.4005 21.74 64.8539 21.5133 64.0672 21.34L61.9472 20.88C60.7472 20.6133 59.8405 20.1733 59.2272 19.56C58.6272 18.9333 58.3272 18.1067 58.3272 17.08C58.3272 15.96 58.7072 15.02 59.4672 14.26C60.2405 13.4867 61.2739 13.02 62.5672 12.86V10.6H64.5672V12.84C65.2605 12.9067 65.9339 13.0733 66.5872 13.34C67.2405 13.6067 67.7939 13.9667 68.2472 14.42L67.4872 16.34C66.4739 15.4067 65.1805 14.94 63.6072 14.94C62.7805 14.94 62.1139 15.1333 61.6072 15.52C61.1139 15.8933 60.8672 16.3867 60.8672 17C60.8672 17.4533 61.0205 17.82 61.3272 18.1C61.6339 18.38 62.1272 18.5933 62.8072 18.74L64.9272 19.2C66.2072 19.48 67.1539 19.9267 67.7672 20.54C68.3939 21.14 68.7072 21.94 68.7072 22.94C68.7072 24.06 68.3205 24.98 67.5472 25.7C66.7872 26.4067 65.7939 26.8533 64.5672 27.04V29.3H62.5672Z" fill="#FDFDFD"/>
</svg>
